<mxfile host="app.diagrams.net" agent="Mozilla/5.0 (Windows NT 10.0; Win64; x64) AppleWebKit/537.36 (KHTML, like Gecko) Chrome/132.0.0.0 Safari/537.36 OPR/117.0.0.0" version="26.2.4">
  <diagram name="Página-1" id="7bljCttjSE_ZduePupPO">
    <mxGraphModel dx="1251" dy="576" grid="1" gridSize="10" guides="1" tooltips="1" connect="1" arrows="1" fold="1" page="1" pageScale="1" pageWidth="827" pageHeight="1169" math="0" shadow="0">
      <root>
        <mxCell id="0" />
        <mxCell id="1" parent="0" />
        <mxCell id="22" value="" style="curved=1;startArrow=none;endArrow=block;exitX=0.99;exitY=0.57;entryX=0.36;entryY=-0.01;" parent="1" edge="1">
          <mxGeometry relative="1" as="geometry">
            <Array as="points">
              <mxPoint x="364" y="280" />
              <mxPoint x="418" y="280" />
            </Array>
            <mxPoint x="577.3767961940093" y="141.71607238127353" as="sourcePoint" />
          </mxGeometry>
        </mxCell>
        <mxCell id="23" value="" style="curved=1;startArrow=none;endArrow=block;exitX=0.82;exitY=0;entryX=0;entryY=0.49;" parent="1" edge="1">
          <mxGeometry relative="1" as="geometry">
            <Array as="points">
              <mxPoint x="364" y="138" />
            </Array>
            <mxPoint x="562.6161307657321" y="113.08663297303019" as="sourcePoint" />
          </mxGeometry>
        </mxCell>
        <mxCell id="26" value="" style="curved=1;startArrow=none;endArrow=block;exitX=0.99;exitY=0.69;entryX=0.44;entryY=0.01;" parent="1" edge="1">
          <mxGeometry relative="1" as="geometry">
            <Array as="points">
              <mxPoint x="364" y="300" />
              <mxPoint x="418" y="300" />
            </Array>
            <mxPoint x="575.6938027046235" y="149.25229189259016" as="sourcePoint" />
          </mxGeometry>
        </mxCell>
        <mxCell id="29" value="" style="curved=1;startArrow=none;endArrow=block;exitX=0.75;exitY=1;entryX=0.46;entryY=0;" parent="1" edge="1">
          <mxGeometry relative="1" as="geometry">
            <Array as="points">
              <mxPoint x="364" y="320" />
              <mxPoint x="418" y="320" />
            </Array>
            <mxPoint x="559.2071868568382" y="55.355811085044934" as="sourcePoint" />
          </mxGeometry>
        </mxCell>
        <mxCell id="31" value="" style="curved=1;startArrow=none;endArrow=block;exitX=0.99;exitY=0.71;entryX=0.39;entryY=0;" parent="1" edge="1">
          <mxGeometry relative="1" as="geometry">
            <Array as="points">
              <mxPoint x="364" y="193" />
              <mxPoint x="857" y="193" />
            </Array>
            <mxPoint x="574.7239059929234" y="38.58142036106301" as="sourcePoint" />
          </mxGeometry>
        </mxCell>
        <mxCell id="qCNo01SNKq6QyHZmtWmA-31" value="Usuario&lt;div&gt;no&amp;nbsp;&lt;span style=&quot;background-color: transparent; color: light-dark(rgb(0, 0, 0), rgb(255, 255, 255));&quot;&gt;registrado&lt;/span&gt;&lt;/div&gt;" style="shape=umlActor;verticalLabelPosition=bottom;verticalAlign=top;html=1;outlineConnect=0;" parent="1" vertex="1">
          <mxGeometry x="225" y="350" width="50" height="87" as="geometry" />
        </mxCell>
        <mxCell id="wp9TlNlraOxQVLOvNRbi-34" value="Iniciar sesión" style="ellipse;whiteSpace=wrap;html=1;" parent="1" vertex="1">
          <mxGeometry x="350" y="440" width="100" height="50" as="geometry" />
        </mxCell>
        <mxCell id="wp9TlNlraOxQVLOvNRbi-37" value="&lt;p data-pm-slice=&quot;1 1 [&amp;quot;ordered_list&amp;quot;,{&amp;quot;spread&amp;quot;:true,&amp;quot;startingNumber&amp;quot;:1,&amp;quot;start&amp;quot;:56,&amp;quot;end&amp;quot;:478},&amp;quot;regular_list_item&amp;quot;,{&amp;quot;start&amp;quot;:56,&amp;quot;end&amp;quot;:147},&amp;quot;list&amp;quot;,{&amp;quot;spread&amp;quot;:false,&amp;quot;start&amp;quot;:88,&amp;quot;end&amp;quot;:147},&amp;quot;regular_list_item&amp;quot;,{&amp;quot;start&amp;quot;:88,&amp;quot;end&amp;quot;:101}]&quot;&gt;Registrarse&lt;/p&gt;" style="ellipse;whiteSpace=wrap;html=1;" parent="1" vertex="1">
          <mxGeometry x="350" y="310" width="100" height="50" as="geometry" />
        </mxCell>
        <mxCell id="wp9TlNlraOxQVLOvNRbi-39" value="Comentar" style="ellipse;whiteSpace=wrap;html=1;" parent="1" vertex="1">
          <mxGeometry x="520" y="610" width="100" height="50" as="geometry" />
        </mxCell>
        <mxCell id="wp9TlNlraOxQVLOvNRbi-41" value="Interactuar con las publicaciones" style="ellipse;whiteSpace=wrap;html=1;" parent="1" vertex="1">
          <mxGeometry x="320" y="690" width="130" height="60" as="geometry" />
        </mxCell>
        <mxCell id="wp9TlNlraOxQVLOvNRbi-45" value="&lt;p data-pm-slice=&quot;1 1 [&amp;quot;ordered_list&amp;quot;,{&amp;quot;spread&amp;quot;:true,&amp;quot;startingNumber&amp;quot;:1,&amp;quot;start&amp;quot;:56,&amp;quot;end&amp;quot;:478},&amp;quot;regular_list_item&amp;quot;,{&amp;quot;start&amp;quot;:56,&amp;quot;end&amp;quot;:147},&amp;quot;list&amp;quot;,{&amp;quot;spread&amp;quot;:false,&amp;quot;start&amp;quot;:88,&amp;quot;end&amp;quot;:147},&amp;quot;regular_list_item&amp;quot;,{&amp;quot;start&amp;quot;:125,&amp;quot;end&amp;quot;:147}]&quot;&gt;Recuperar contraseña&lt;/p&gt;" style="ellipse;whiteSpace=wrap;html=1;" parent="1" vertex="1">
          <mxGeometry x="530" y="370" width="100" height="50" as="geometry" />
        </mxCell>
        <mxCell id="sT7XNNBiZ8bP1vPra6IX-31" value="&amp;lt;&amp;lt;extends&amp;gt;&amp;gt;" style="html=1;verticalAlign=bottom;endArrow=open;dashed=1;endSize=8;curved=0;rounded=0;exitX=0;exitY=0.5;exitDx=0;exitDy=0;entryX=1;entryY=0.5;entryDx=0;entryDy=0;" edge="1" parent="1" source="wp9TlNlraOxQVLOvNRbi-45" target="wp9TlNlraOxQVLOvNRbi-34">
          <mxGeometry relative="1" as="geometry">
            <mxPoint x="750" y="410" as="sourcePoint" />
            <mxPoint x="600" y="410" as="targetPoint" />
          </mxGeometry>
        </mxCell>
        <mxCell id="sT7XNNBiZ8bP1vPra6IX-34" value="Usuario&lt;div&gt;registrado&lt;/div&gt;" style="shape=umlActor;verticalLabelPosition=bottom;verticalAlign=top;html=1;outlineConnect=0;" vertex="1" parent="1">
          <mxGeometry x="190" y="520" width="60" height="110" as="geometry" />
        </mxCell>
        <mxCell id="sT7XNNBiZ8bP1vPra6IX-39" value="&amp;lt;&amp;lt;extend&amp;gt;&amp;gt;" style="html=1;verticalAlign=bottom;endArrow=open;dashed=1;endSize=8;curved=0;rounded=0;exitX=0.5;exitY=1;exitDx=0;exitDy=0;entryX=0.5;entryY=0;entryDx=0;entryDy=0;" edge="1" parent="1" source="wp9TlNlraOxQVLOvNRbi-37" target="wp9TlNlraOxQVLOvNRbi-34">
          <mxGeometry relative="1" as="geometry">
            <mxPoint x="400" y="440" as="sourcePoint" />
            <mxPoint x="350" y="380" as="targetPoint" />
          </mxGeometry>
        </mxCell>
        <mxCell id="sT7XNNBiZ8bP1vPra6IX-40" value="&lt;p data-pm-slice=&quot;1 1 [&amp;quot;ordered_list&amp;quot;,{&amp;quot;spread&amp;quot;:true,&amp;quot;startingNumber&amp;quot;:1,&amp;quot;start&amp;quot;:56,&amp;quot;end&amp;quot;:478},&amp;quot;regular_list_item&amp;quot;,{&amp;quot;start&amp;quot;:56,&amp;quot;end&amp;quot;:147},&amp;quot;list&amp;quot;,{&amp;quot;spread&amp;quot;:false,&amp;quot;start&amp;quot;:88,&amp;quot;end&amp;quot;:147},&amp;quot;regular_list_item&amp;quot;,{&amp;quot;start&amp;quot;:88,&amp;quot;end&amp;quot;:101}]&quot;&gt;Explorar contenido&lt;/p&gt;" style="ellipse;whiteSpace=wrap;html=1;" vertex="1" parent="1">
          <mxGeometry x="345" y="240" width="100" height="50" as="geometry" />
        </mxCell>
        <mxCell id="sT7XNNBiZ8bP1vPra6IX-42" value="&lt;p data-pm-slice=&quot;1 1 [&amp;quot;ordered_list&amp;quot;,{&amp;quot;spread&amp;quot;:true,&amp;quot;startingNumber&amp;quot;:1,&amp;quot;start&amp;quot;:56,&amp;quot;end&amp;quot;:478},&amp;quot;regular_list_item&amp;quot;,{&amp;quot;start&amp;quot;:56,&amp;quot;end&amp;quot;:147},&amp;quot;list&amp;quot;,{&amp;quot;spread&amp;quot;:false,&amp;quot;start&amp;quot;:88,&amp;quot;end&amp;quot;:147},&amp;quot;regular_list_item&amp;quot;,{&amp;quot;start&amp;quot;:88,&amp;quot;end&amp;quot;:101}]&quot;&gt;Publicar&lt;/p&gt;" style="ellipse;whiteSpace=wrap;html=1;" vertex="1" parent="1">
          <mxGeometry x="350" y="510" width="100" height="50" as="geometry" />
        </mxCell>
        <mxCell id="sT7XNNBiZ8bP1vPra6IX-51" value="Administrador" style="shape=umlActor;verticalLabelPosition=bottom;verticalAlign=top;html=1;outlineConnect=0;" vertex="1" parent="1">
          <mxGeometry x="80" y="720" width="70" height="130" as="geometry" />
        </mxCell>
        <mxCell id="sT7XNNBiZ8bP1vPra6IX-52" value="Usuario" style="shape=umlActor;verticalLabelPosition=bottom;verticalAlign=top;html=1;outlineConnect=0;" vertex="1" parent="1">
          <mxGeometry x="60" y="211.5" width="60" height="107" as="geometry" />
        </mxCell>
        <mxCell id="sT7XNNBiZ8bP1vPra6IX-53" value="" style="endArrow=block;endSize=16;endFill=0;html=1;rounded=0;" edge="1" parent="1" source="qCNo01SNKq6QyHZmtWmA-31" target="sT7XNNBiZ8bP1vPra6IX-52">
          <mxGeometry width="160" relative="1" as="geometry">
            <mxPoint x="170" y="450" as="sourcePoint" />
            <mxPoint x="330" y="450" as="targetPoint" />
          </mxGeometry>
        </mxCell>
        <mxCell id="sT7XNNBiZ8bP1vPra6IX-54" value="" style="endArrow=block;endSize=16;endFill=0;html=1;rounded=0;" edge="1" parent="1" source="sT7XNNBiZ8bP1vPra6IX-34" target="sT7XNNBiZ8bP1vPra6IX-52">
          <mxGeometry width="160" relative="1" as="geometry">
            <mxPoint x="230" y="396" as="sourcePoint" />
            <mxPoint x="160" y="520" as="targetPoint" />
          </mxGeometry>
        </mxCell>
        <mxCell id="sT7XNNBiZ8bP1vPra6IX-57" value="" style="endArrow=none;html=1;rounded=0;entryX=0;entryY=0.5;entryDx=0;entryDy=0;" edge="1" parent="1" source="sT7XNNBiZ8bP1vPra6IX-52" target="sT7XNNBiZ8bP1vPra6IX-40">
          <mxGeometry width="50" height="50" relative="1" as="geometry">
            <mxPoint x="390" y="430" as="sourcePoint" />
            <mxPoint x="440" y="380" as="targetPoint" />
          </mxGeometry>
        </mxCell>
        <mxCell id="sT7XNNBiZ8bP1vPra6IX-59" value="" style="endArrow=none;html=1;rounded=0;entryX=0;entryY=0.5;entryDx=0;entryDy=0;" edge="1" parent="1" source="qCNo01SNKq6QyHZmtWmA-31" target="wp9TlNlraOxQVLOvNRbi-37">
          <mxGeometry width="50" height="50" relative="1" as="geometry">
            <mxPoint x="310" y="320" as="sourcePoint" />
            <mxPoint x="350" y="355" as="targetPoint" />
          </mxGeometry>
        </mxCell>
        <mxCell id="sT7XNNBiZ8bP1vPra6IX-60" value="" style="endArrow=none;html=1;rounded=0;entryX=0;entryY=0.5;entryDx=0;entryDy=0;" edge="1" parent="1" source="qCNo01SNKq6QyHZmtWmA-31" target="wp9TlNlraOxQVLOvNRbi-34">
          <mxGeometry width="50" height="50" relative="1" as="geometry">
            <mxPoint x="280" y="379" as="sourcePoint" />
            <mxPoint x="360" y="365" as="targetPoint" />
          </mxGeometry>
        </mxCell>
        <mxCell id="sT7XNNBiZ8bP1vPra6IX-63" value="" style="endArrow=none;html=1;rounded=0;entryX=0;entryY=0.5;entryDx=0;entryDy=0;" edge="1" parent="1" source="sT7XNNBiZ8bP1vPra6IX-34" target="sT7XNNBiZ8bP1vPra6IX-42">
          <mxGeometry width="50" height="50" relative="1" as="geometry">
            <mxPoint x="300" y="560" as="sourcePoint" />
            <mxPoint x="380" y="630" as="targetPoint" />
          </mxGeometry>
        </mxCell>
        <mxCell id="sT7XNNBiZ8bP1vPra6IX-64" value="" style="endArrow=none;html=1;rounded=0;entryX=0;entryY=0.5;entryDx=0;entryDy=0;" edge="1" parent="1" source="sT7XNNBiZ8bP1vPra6IX-34" target="wp9TlNlraOxQVLOvNRbi-41">
          <mxGeometry width="50" height="50" relative="1" as="geometry">
            <mxPoint x="290" y="565" as="sourcePoint" />
            <mxPoint x="350" y="600" as="targetPoint" />
          </mxGeometry>
        </mxCell>
        <mxCell id="sT7XNNBiZ8bP1vPra6IX-66" value="" style="endArrow=block;endSize=16;endFill=0;html=1;rounded=0;exitX=0.5;exitY=0;exitDx=0;exitDy=0;exitPerimeter=0;" edge="1" parent="1" source="sT7XNNBiZ8bP1vPra6IX-51" target="sT7XNNBiZ8bP1vPra6IX-34">
          <mxGeometry width="160" relative="1" as="geometry">
            <mxPoint x="350" y="710" as="sourcePoint" />
            <mxPoint x="220" y="691" as="targetPoint" />
          </mxGeometry>
        </mxCell>
        <mxCell id="sT7XNNBiZ8bP1vPra6IX-67" value="" style="endArrow=block;endSize=16;endFill=0;html=1;rounded=0;" edge="1" parent="1" source="sT7XNNBiZ8bP1vPra6IX-51">
          <mxGeometry width="160" relative="1" as="geometry">
            <mxPoint x="217" y="540" as="sourcePoint" />
            <mxPoint x="90" y="320" as="targetPoint" />
          </mxGeometry>
        </mxCell>
        <mxCell id="sT7XNNBiZ8bP1vPra6IX-68" value="Gestionar perfil" style="ellipse;whiteSpace=wrap;html=1;" vertex="1" parent="1">
          <mxGeometry x="335" y="610" width="115" height="50" as="geometry" />
        </mxCell>
        <mxCell id="sT7XNNBiZ8bP1vPra6IX-69" value="" style="endArrow=none;html=1;rounded=0;entryX=0;entryY=0.5;entryDx=0;entryDy=0;" edge="1" parent="1" target="sT7XNNBiZ8bP1vPra6IX-68" source="sT7XNNBiZ8bP1vPra6IX-34">
          <mxGeometry width="50" height="50" relative="1" as="geometry">
            <mxPoint x="255" y="664" as="sourcePoint" />
            <mxPoint x="355" y="680" as="targetPoint" />
          </mxGeometry>
        </mxCell>
        <mxCell id="sT7XNNBiZ8bP1vPra6IX-74" value="" style="endArrow=none;html=1;rounded=0;entryX=0;entryY=0.5;entryDx=0;entryDy=0;exitX=1;exitY=0.5;exitDx=0;exitDy=0;" edge="1" parent="1" source="wp9TlNlraOxQVLOvNRbi-41" target="wp9TlNlraOxQVLOvNRbi-39">
          <mxGeometry width="50" height="50" relative="1" as="geometry">
            <mxPoint x="460" y="625" as="sourcePoint" />
            <mxPoint x="580" y="660" as="targetPoint" />
          </mxGeometry>
        </mxCell>
        <mxCell id="sT7XNNBiZ8bP1vPra6IX-78" value="Referenciar contexto" style="ellipse;whiteSpace=wrap;html=1;" vertex="1" parent="1">
          <mxGeometry x="550" y="510" width="100" height="50" as="geometry" />
        </mxCell>
        <mxCell id="sT7XNNBiZ8bP1vPra6IX-80" value="&amp;lt;&amp;lt;extends&amp;gt;&amp;gt;" style="html=1;verticalAlign=bottom;endArrow=open;dashed=1;endSize=8;curved=0;rounded=0;entryX=1;entryY=0.5;entryDx=0;entryDy=0;exitX=0;exitY=0.5;exitDx=0;exitDy=0;" edge="1" parent="1" source="sT7XNNBiZ8bP1vPra6IX-78" target="sT7XNNBiZ8bP1vPra6IX-42">
          <mxGeometry x="0.0084" relative="1" as="geometry">
            <mxPoint x="570" y="470" as="sourcePoint" />
            <mxPoint x="490" y="580" as="targetPoint" />
            <mxPoint as="offset" />
          </mxGeometry>
        </mxCell>
        <mxCell id="sT7XNNBiZ8bP1vPra6IX-81" value="Editar" style="ellipse;whiteSpace=wrap;html=1;" vertex="1" parent="1">
          <mxGeometry x="530" y="725" width="100" height="50" as="geometry" />
        </mxCell>
        <mxCell id="sT7XNNBiZ8bP1vPra6IX-82" value="" style="endArrow=none;html=1;rounded=0;entryX=0;entryY=0.5;entryDx=0;entryDy=0;exitX=1;exitY=0.5;exitDx=0;exitDy=0;" edge="1" parent="1" target="sT7XNNBiZ8bP1vPra6IX-81" source="wp9TlNlraOxQVLOvNRbi-41">
          <mxGeometry width="50" height="50" relative="1" as="geometry">
            <mxPoint x="470" y="850" as="sourcePoint" />
            <mxPoint x="600" y="760" as="targetPoint" />
          </mxGeometry>
        </mxCell>
        <mxCell id="sT7XNNBiZ8bP1vPra6IX-83" value="Eliminar publicaciones propias" style="ellipse;whiteSpace=wrap;html=1;" vertex="1" parent="1">
          <mxGeometry x="530" y="810" width="100" height="50" as="geometry" />
        </mxCell>
        <mxCell id="sT7XNNBiZ8bP1vPra6IX-84" value="" style="endArrow=none;html=1;rounded=0;exitX=1;exitY=0.5;exitDx=0;exitDy=0;entryX=0;entryY=0.5;entryDx=0;entryDy=0;" edge="1" parent="1" target="sT7XNNBiZ8bP1vPra6IX-83" source="wp9TlNlraOxQVLOvNRbi-41">
          <mxGeometry width="50" height="50" relative="1" as="geometry">
            <mxPoint x="450" y="790" as="sourcePoint" />
            <mxPoint x="490" y="850" as="targetPoint" />
          </mxGeometry>
        </mxCell>
        <mxCell id="sT7XNNBiZ8bP1vPra6IX-86" value="Eliminar publicaciones ajenas" style="ellipse;whiteSpace=wrap;html=1;" vertex="1" parent="1">
          <mxGeometry x="342.5" y="790" width="100" height="50" as="geometry" />
        </mxCell>
        <mxCell id="sT7XNNBiZ8bP1vPra6IX-87" value="" style="endArrow=none;html=1;rounded=0;entryX=0;entryY=0.5;entryDx=0;entryDy=0;" edge="1" parent="1" target="sT7XNNBiZ8bP1vPra6IX-86" source="sT7XNNBiZ8bP1vPra6IX-51">
          <mxGeometry width="50" height="50" relative="1" as="geometry">
            <mxPoint x="340" y="750" as="sourcePoint" />
            <mxPoint x="420" y="885" as="targetPoint" />
          </mxGeometry>
        </mxCell>
      </root>
    </mxGraphModel>
  </diagram>
</mxfile>
